<?xml version="1.0" encoding="utf-8"?>
<!-- Generator: Adobe Illustrator 14.0.0, SVG Export Plug-In . SVG Version: 6.00 Build 43363)  -->
<!DOCTYPE svg PUBLIC "-//W3C//DTD SVG 1.1//EN" "http://www.w3.org/Graphics/SVG/1.1/DTD/svg11.dtd">
<svg version="1.1" id="Calque_1" xmlns="http://www.w3.org/2000/svg" xmlns:xlink="http://www.w3.org/1999/xlink" x="0px" y="0px"
	 width="264px" height="264px" viewBox="0 0 264 264" enable-background="new 0 0 264 264" xml:space="preserve">
<g id="XMLID_6_">
	<path fill="#3FA9F5" d="M240.043,129.161c4.86,4.86,7.46,15.41,7.46,59.1c0,43.68-5.56,54.63-10.649,58.109
		c-7.4,5.04-41.98,9.591-81.671,9.591c-39.689,0-70.2-4.04-77.089-9.591c-4.1-3.319-9.17-8.659-9.56-52.06
		c8.73,0.54,18.43,0.83,28.79,0.83c37.25,0,69.71-4.271,76.66-9c4.77-3.26,10-13.54,10-54.54c0-3.8-0.021-7.33-0.061-10.61
		C214.873,121.891,235.443,124.561,240.043,129.161z"/>
	<path fill="#79C021" d="M213.273,13.181c3.069,3.07,4.71,9.73,4.71,37.31c0,27.57-3.511,34.49-6.73,36.68
		c-3.16,2.15-14.189,4.17-28.77,5.24c-1.181-9.74-3.03-13.79-5.5-16.27c-5.2-5.2-32.08-7.76-71.5-7.98
		c-0.32-4.53-0.5-10.2-0.5-17.34c0-30.6,1.71-33.55,6.05-36.96c4.23-3.33,21.76-6.06,50.34-6.06
		C189.963,7.801,209.613,9.521,213.273,13.181z"/>
	<path fill="#ED1E79" d="M183.923,120.991c0.04,3.28,0.061,6.81,0.061,10.61c0,41-5.23,51.28-10,54.54c-6.95,4.729-39.41,9-76.66,9
		c-10.36,0-20.06-0.29-28.79-0.83c-0.02-1.78-0.03-3.61-0.03-5.52c0-48.48,2.72-53.15,9.59-58.561c6.69-5.27,34.47-9.59,79.75-9.59
		C167.173,120.641,175.893,120.761,183.923,120.991z"/>
	<path fill="#C1272D" d="M182.483,92.411c0.79,6.55,1.27,15.65,1.439,28.58c-8.03-0.23-16.75-0.35-26.08-0.35
		c-45.28,0-73.06,4.32-79.75,9.59c-6.87,5.41-9.59,10.08-9.59,58.561c0,1.909,0.01,3.739,0.03,5.52
		c-22.67-1.39-38.89-4.41-43.55-8.17c-4.02-3.24-9-8.54-9-54.04s2.54-49.88,9-54.96c6.27-4.95,32.34-9,74.84-9
		c1.91,0,3.8,0.01,5.66,0.02c1.03,14.86,3.48,17.34,5.55,19.01c4.35,3.51,23.609,6.06,48.66,6.06
		C167.783,93.23,175.533,92.931,182.483,92.411z"/>
	<path fill="#FCD921" d="M176.983,76.141c2.47,2.48,4.319,6.53,5.5,16.27c-6.95,0.52-14.7,0.82-22.79,0.82
		c-25.051,0-44.311-2.55-48.66-6.06c-2.07-1.67-4.52-4.15-5.55-19.01C144.903,68.38,171.783,70.94,176.983,76.141z"/>
</g>
</svg>
