<?xml version="1.0" encoding="utf-8"?>
<!-- Generator: Adobe Illustrator 14.0.0, SVG Export Plug-In . SVG Version: 6.00 Build 43363)  -->
<!DOCTYPE svg PUBLIC "-//W3C//DTD SVG 1.1//EN" "http://www.w3.org/Graphics/SVG/1.1/DTD/svg11.dtd">
<svg version="1.1" id="Calque_1" xmlns="http://www.w3.org/2000/svg" xmlns:xlink="http://www.w3.org/1999/xlink" x="0px" y="0px"
	 width="264px" height="264px" viewBox="0 0 264 264" enable-background="new 0 0 264 264" xml:space="preserve">
<g id="XMLID_6_">
	<path fill="#3FA9F5" d="M240.043,129.161c4.86,4.86,7.46,15.41,7.46,59.1c0,43.68-5.56,54.63-10.649,58.109
		c-7.4,5.04-41.98,9.591-81.671,9.591c-39.689,0-70.2-4.04-77.089-9.591c-4.1-3.319-9.17-8.659-9.56-52.06
		c8.73,0.54,18.43,0.83,28.79,0.83c37.25,0,69.71-4.271,76.66-9c4.77-3.26,10-13.54,10-54.54c0-3.8-0.021-7.33-0.061-10.61
		C214.873,121.891,235.443,124.561,240.043,129.161z"/>
	<path fill="#79C021" d="M213.273,13.181c3.069,3.07,4.71,9.73,4.71,37.31c0,27.57-3.511,34.49-6.73,36.68
		c-3.16,2.15-14.189,4.17-28.77,5.24c-1.181-9.74-3.03-13.79-5.5-16.27c-5.2-5.2-32.08-7.76-71.5-7.98
		c-0.32-4.53-0.5-10.2-0.5-17.34c0-30.6,1.71-33.55,6.05-36.96c4.23-3.33,21.76-6.06,50.34-6.06
		C189.963,7.801,209.613,9.521,213.273,13.181z"/>
	<path fill="#ED1E79" d="M183.923,120.991c0.04,3.28,0.061,6.81,0.061,10.61c0,41-5.23,51.28-10,54.54c-6.95,4.729-39.41,9-76.66,9
		c-10.36,0-20.06-0.29-28.79-0.83c-0.02-1.78-0.03-3.61-0.03-5.52c0-48.48,2.72-53.15,9.59-58.561c6.69-5.27,34.47-9.59,79.75-9.59
		C167.173,120.641,175.893,120.761,183.923,120.991z"/>
	<path fill="#C1272D" d="M182.483,92.411c0.79,6.55,1.27,15.65,1.439,28.58c-8.03-0.23-16.75-0.35-26.08-0.35
		c-45.28,0-73.06,4.32-79.75,9.59c-6.87,5.41-9.59,10.08-9.59,58.561c0,1.909,0.01,3.739,0.03,5.52
		c-22.67-1.39-38.89-4.41-43.55-8.17c-4.02-3.24-9-8.54-9-54.04s2.54-49.88,9-54.96c6.27-4.95,32.34-9,74.84-9
		c1.91,0,3.8,0.01,5.66,0.02c1.03,14.86,3.48,17.34,5.55,19.01c4.35,3.51,23.609,6.06,48.66,6.06
		C167.783,93.23,175.533,92.931,182.483,92.411z"/>
	<path fill="#FCD921" d="M176.983,76.141c2.47,2.48,4.319,6.53,5.5,16.27c-6.95,0.52-14.7,0.82-22.79,0.82
		c-25.051,0-44.311-2.55-48.66-6.06c-2.07-1.67-4.52-4.15-5.55-19.01C144.903,68.38,171.783,70.94,176.983,76.141z"/>
</g>
<g>
	<g>
		<path fill="#FFFFFF" d="M60.209,105.382c0,0.125-0.012,0.305-0.035,0.539s-0.059,0.492-0.105,0.773s-0.105,0.566-0.176,0.855
			s-0.156,0.555-0.258,0.797s-0.215,0.441-0.34,0.598s-0.258,0.234-0.398,0.234c-0.219,0-0.492-0.098-0.82-0.293
			s-0.73-0.406-1.207-0.633s-1.035-0.438-1.676-0.633s-1.367-0.293-2.18-0.293c-0.844,0-1.559,0.117-2.145,0.352
			s-1.066,0.543-1.441,0.926s-0.652,0.812-0.832,1.289s-0.27,0.957-0.27,1.441c0,0.562,0.141,1.059,0.422,1.488
			s0.656,0.828,1.125,1.195s1.004,0.723,1.605,1.066s1.211,0.703,1.828,1.078s1.227,0.785,1.828,1.23s1.137,0.961,1.605,1.547
			s0.844,1.258,1.125,2.016s0.422,1.629,0.422,2.613c0,1.469-0.297,2.832-0.891,4.09s-1.434,2.352-2.52,3.281
			s-2.398,1.66-3.938,2.192c-1.539,0.531-3.246,0.797-5.121,0.797c-1.016,0-1.953-0.082-2.812-0.246s-1.621-0.363-2.285-0.598
			c-0.664-0.235-1.223-0.481-1.676-0.739s-0.789-0.504-1.008-0.738s-0.328-0.586-0.328-1.055c0-0.125,0.016-0.312,0.047-0.562
			s0.074-0.52,0.129-0.809s0.121-0.586,0.199-0.891s0.172-0.582,0.281-0.832s0.23-0.453,0.363-0.609s0.277-0.234,0.434-0.234
			c0.266,0,0.582,0.121,0.949,0.363s0.824,0.508,1.371,0.797s1.195,0.559,1.945,0.809s1.648,0.375,2.695,0.375
			c0.922,0,1.73-0.117,2.426-0.352s1.277-0.555,1.746-0.961s0.824-0.879,1.066-1.418s0.363-1.129,0.363-1.77
			c0-0.578-0.141-1.086-0.422-1.523s-0.652-0.84-1.113-1.207s-0.984-0.715-1.57-1.043s-1.184-0.68-1.793-1.055
			s-1.207-0.781-1.793-1.219s-1.109-0.949-1.57-1.535s-0.832-1.262-1.113-2.027s-0.422-1.656-0.422-2.672
			c0-1.406,0.281-2.703,0.844-3.891s1.344-2.207,2.344-3.059s2.195-1.516,3.586-1.992s2.922-0.715,4.594-0.715
			c0.781,0,1.523,0.059,2.227,0.176s1.344,0.266,1.922,0.445s1.07,0.379,1.477,0.598s0.688,0.402,0.844,0.551s0.27,0.305,0.34,0.469
			S60.209,105.132,60.209,105.382z"/>
		<path fill="#FFFFFF" d="M83.5,116.281c0,1.125-0.254,2.137-0.762,3.035s-1.297,1.672-2.367,2.32s-2.43,1.145-4.078,1.488
			s-3.613,0.516-5.895,0.516h-2.156c-0.062,0.359-0.109,0.715-0.141,1.066s-0.047,0.676-0.047,0.973
			c0,1.266,0.328,2.219,0.984,2.859s1.711,0.961,3.164,0.961c1.031,0,1.957-0.074,2.777-0.223s1.539-0.312,2.156-0.492
			s1.129-0.344,1.535-0.492s0.703-0.223,0.891-0.223s0.32,0.055,0.398,0.164s0.117,0.281,0.117,0.516c0,0.266-0.023,0.57-0.07,0.914
			s-0.113,0.684-0.199,1.02s-0.195,0.652-0.328,0.949s-0.285,0.523-0.457,0.68c-0.188,0.188-0.531,0.375-1.031,0.562
			c-0.5,0.188-1.102,0.36-1.805,0.516s-1.492,0.285-2.367,0.387s-1.766,0.152-2.672,0.152c-1.5,0-2.809-0.156-3.926-0.469
			s-2.051-0.79-2.801-1.43s-1.312-1.457-1.688-2.449s-0.562-2.168-0.562-3.527c0-1.047,0.098-2.168,0.293-3.363
			s0.512-2.375,0.949-3.539s1-2.277,1.688-3.34s1.52-1.996,2.496-2.801s2.105-1.449,3.387-1.934s2.742-0.727,4.383-0.727
			c1.422,0,2.645,0.168,3.668,0.504s1.863,0.781,2.52,1.336s1.145,1.188,1.465,1.898S83.5,115.531,83.5,116.281z M77.711,116.726
			c0-0.625-0.246-1.145-0.738-1.559s-1.207-0.621-2.145-0.621c-0.781,0-1.48,0.141-2.098,0.422s-1.16,0.66-1.629,1.137
			s-0.871,1.039-1.207,1.688s-0.605,1.34-0.809,2.074h1.969c1.25,0,2.297-0.082,3.141-0.246s1.523-0.387,2.039-0.668
			s0.891-0.613,1.125-0.996S77.711,117.164,77.711,116.726z"/>
		<path fill="#FFFFFF" d="M103.368,111.359c0,0.109-0.016,0.305-0.047,0.586s-0.078,0.609-0.141,0.984s-0.141,0.762-0.234,1.16
			s-0.199,0.77-0.316,1.113s-0.25,0.625-0.398,0.844s-0.309,0.328-0.48,0.328c-0.141,0-0.281-0.027-0.422-0.082
			s-0.297-0.109-0.469-0.164s-0.359-0.109-0.562-0.164s-0.438-0.082-0.703-0.082c-0.531,0-1.098,0.203-1.699,0.609
			s-1.176,0.941-1.723,1.605s-1.035,1.438-1.465,2.32s-0.738,1.809-0.926,2.777l-1.875,9.398c-0.031,0.156-0.105,0.293-0.223,0.411
			c-0.117,0.117-0.297,0.215-0.539,0.293s-0.559,0.137-0.949,0.176s-0.867,0.059-1.43,0.059c-0.578,0-1.051-0.02-1.418-0.059
			s-0.656-0.098-0.867-0.176s-0.348-0.176-0.41-0.293c-0.062-0.118-0.078-0.254-0.047-0.411l4.172-20.93
			c0.031-0.156,0.102-0.293,0.211-0.41s0.27-0.211,0.48-0.281s0.484-0.125,0.82-0.164s0.738-0.059,1.207-0.059
			c0.484,0,0.879,0.02,1.184,0.059s0.543,0.094,0.715,0.164s0.285,0.164,0.34,0.281s0.066,0.254,0.035,0.41l-0.656,3.328
			c0.375-0.672,0.809-1.289,1.301-1.852s1.016-1.051,1.57-1.465s1.129-0.738,1.723-0.973s1.18-0.352,1.758-0.352
			c0.234,0,0.473,0.016,0.715,0.047s0.469,0.07,0.68,0.117s0.398,0.105,0.562,0.176s0.293,0.145,0.387,0.223
			C103.321,111.007,103.368,111.156,103.368,111.359z"/>
		<path fill="#FFFFFF" d="M109.526,132.593c-0.031,0.156-0.105,0.293-0.223,0.411c-0.117,0.117-0.297,0.215-0.539,0.293
			s-0.559,0.137-0.949,0.176s-0.867,0.059-1.43,0.059c-0.578,0-1.051-0.02-1.418-0.059s-0.656-0.098-0.867-0.176
			s-0.348-0.176-0.41-0.293c-0.062-0.118-0.078-0.254-0.047-0.411l4.148-20.859c0.031-0.156,0.105-0.293,0.223-0.41
			s0.297-0.219,0.539-0.305s0.555-0.152,0.938-0.199s0.863-0.07,1.441-0.07s1.051,0.023,1.418,0.07s0.656,0.113,0.867,0.199
			s0.348,0.188,0.41,0.305s0.078,0.254,0.047,0.41L109.526,132.593z M115.573,104.656c-0.109,0.578-0.258,1.066-0.445,1.465
			s-0.438,0.719-0.75,0.961s-0.695,0.414-1.148,0.516s-1.016,0.152-1.688,0.152c-0.656,0-1.191-0.051-1.605-0.152
			s-0.727-0.273-0.938-0.516s-0.332-0.562-0.363-0.961s0.016-0.887,0.141-1.465c0.109-0.562,0.258-1.039,0.445-1.43
			s0.438-0.711,0.75-0.961s0.695-0.43,1.148-0.539s1.016-0.164,1.688-0.164c0.656,0,1.191,0.055,1.605,0.164
			s0.727,0.289,0.938,0.539s0.328,0.57,0.352,0.961S115.682,104.093,115.573,104.656z"/>
		<path fill="#FFFFFF" d="M137.926,116.281c0,1.125-0.254,2.137-0.762,3.035s-1.297,1.672-2.367,2.32s-2.43,1.145-4.079,1.488
			s-3.613,0.516-5.895,0.516h-2.156c-0.062,0.359-0.109,0.715-0.141,1.066s-0.047,0.676-0.047,0.973
			c0,1.266,0.328,2.219,0.984,2.859s1.711,0.961,3.164,0.961c1.031,0,1.957-0.074,2.777-0.223s1.539-0.312,2.156-0.492
			s1.129-0.344,1.536-0.492c0.406-0.148,0.703-0.223,0.891-0.223s0.32,0.055,0.398,0.164s0.117,0.281,0.117,0.516
			c0,0.266-0.023,0.57-0.07,0.914s-0.113,0.684-0.199,1.02s-0.195,0.652-0.328,0.949s-0.285,0.523-0.457,0.68
			c-0.188,0.188-0.532,0.375-1.032,0.562c-0.5,0.188-1.102,0.36-1.805,0.516s-1.492,0.285-2.367,0.387s-1.766,0.152-2.672,0.152
			c-1.5,0-2.809-0.156-3.926-0.469s-2.051-0.79-2.801-1.43s-1.312-1.457-1.688-2.449s-0.562-2.168-0.562-3.527
			c0-1.047,0.098-2.168,0.293-3.363s0.512-2.375,0.949-3.539s1-2.277,1.688-3.34s1.52-1.996,2.496-2.801s2.105-1.449,3.387-1.934
			s2.742-0.727,4.383-0.727c1.422,0,2.645,0.168,3.668,0.504c1.023,0.336,1.863,0.781,2.52,1.336s1.145,1.188,1.465,1.898
			S137.926,115.531,137.926,116.281z M132.136,116.726c0-0.625-0.246-1.145-0.738-1.559s-1.207-0.621-2.145-0.621
			c-0.781,0-1.48,0.141-2.098,0.422s-1.16,0.66-1.629,1.137s-0.871,1.039-1.207,1.688s-0.605,1.34-0.809,2.074h1.969
			c1.25,0,2.297-0.082,3.141-0.246s1.523-0.387,2.039-0.668s0.891-0.613,1.125-0.996S132.136,117.164,132.136,116.726z"/>
		<path fill="#FFFFFF" d="M157.677,112.601c0,0.188-0.027,0.465-0.082,0.832s-0.137,0.738-0.246,1.113s-0.238,0.699-0.387,0.973
			s-0.316,0.41-0.504,0.41c-0.203,0-0.441-0.074-0.715-0.223s-0.605-0.312-0.996-0.492s-0.848-0.34-1.371-0.48
			s-1.137-0.211-1.84-0.211c-0.547,0-1.035,0.07-1.465,0.211s-0.785,0.332-1.066,0.574s-0.496,0.527-0.645,0.855
			s-0.223,0.68-0.223,1.055c0,0.484,0.199,0.891,0.598,1.219s0.895,0.637,1.488,0.926s1.234,0.59,1.922,0.902
			s1.328,0.703,1.922,1.172s1.086,1.039,1.477,1.711s0.586,1.516,0.586,2.531c0,1.188-0.227,2.285-0.68,3.293
			s-1.113,1.879-1.98,2.613s-1.922,1.309-3.164,1.723c-1.242,0.414-2.645,0.621-4.207,0.621c-0.75,0-1.465-0.055-2.145-0.164
			s-1.289-0.242-1.828-0.398s-0.996-0.336-1.371-0.54c-0.375-0.203-0.656-0.391-0.844-0.562c-0.125-0.125-0.215-0.258-0.27-0.398
			s-0.082-0.32-0.082-0.539c0-0.141,0.012-0.32,0.035-0.539s0.062-0.461,0.117-0.727s0.117-0.531,0.188-0.797
			s0.152-0.508,0.246-0.727s0.195-0.395,0.305-0.527s0.227-0.199,0.352-0.199c0.219,0,0.461,0.094,0.727,0.281
			s0.609,0.395,1.031,0.621s0.941,0.438,1.559,0.633s1.387,0.293,2.309,0.293c0.641,0,1.199-0.074,1.676-0.223
			s0.871-0.355,1.184-0.621s0.543-0.57,0.691-0.914s0.223-0.711,0.223-1.102c0-0.547-0.191-0.992-0.574-1.336
			s-0.863-0.664-1.441-0.961s-1.207-0.602-1.887-0.914s-1.309-0.695-1.887-1.148s-1.059-1.016-1.441-1.688s-0.574-1.516-0.574-2.531
			c0-1.109,0.211-2.141,0.633-3.094s1.039-1.785,1.852-2.496s1.797-1.266,2.953-1.664s2.469-0.598,3.938-0.598
			c0.656,0,1.293,0.043,1.91,0.129s1.172,0.199,1.664,0.34s0.922,0.297,1.289,0.469s0.629,0.344,0.785,0.516
			C157.591,111.96,157.677,112.226,157.677,112.601z"/>
	</g>
	<g>
		<path fill="#FFFFFF" d="M76.8,171.486c-0.156,0.375-0.336,0.676-0.539,0.902s-0.477,0.395-0.82,0.504s-0.777,0.18-1.301,0.211
			s-1.184,0.047-1.98,0.047c-0.844,0-1.527-0.016-2.051-0.047s-0.93-0.098-1.219-0.199s-0.488-0.254-0.598-0.457
			s-0.172-0.469-0.188-0.797l-1.102-19.43h-0.047l-8.414,19.266c-0.156,0.375-0.324,0.676-0.504,0.902s-0.418,0.395-0.715,0.504
			s-0.703,0.18-1.219,0.211s-1.18,0.047-1.992,0.047c-0.938,0-1.688-0.016-2.25-0.047s-0.996-0.102-1.301-0.211
			s-0.508-0.281-0.609-0.516s-0.16-0.555-0.176-0.961l-1.641-26.672c-0.016-0.5-0.004-0.898,0.035-1.195s0.168-0.52,0.387-0.668
			s0.543-0.242,0.973-0.281s1.035-0.059,1.816-0.059c0.641,0,1.18,0.02,1.617,0.059s0.762,0.109,0.973,0.211s0.344,0.238,0.398,0.41
			s0.082,0.398,0.082,0.68l0.609,23.133h0.047l10.242-23.109c0.125-0.297,0.262-0.535,0.41-0.715s0.355-0.32,0.621-0.422
			s0.613-0.168,1.043-0.199s1.004-0.047,1.723-0.047s1.289,0.016,1.711,0.047s0.742,0.098,0.961,0.199s0.359,0.246,0.422,0.434
			s0.102,0.438,0.117,0.75l1.172,23.062h0.047l9.961-23.391c0.078-0.219,0.184-0.402,0.316-0.551s0.328-0.262,0.586-0.34
			s0.605-0.133,1.043-0.164s1-0.047,1.688-0.047c0.672,0,1.199,0.027,1.582,0.082s0.645,0.168,0.785,0.34s0.164,0.426,0.07,0.762
			s-0.258,0.777-0.492,1.324L76.8,171.486z"/>
		<path fill="#FFFFFF" d="M106.348,172.236c-0.062,0.328-0.309,0.562-0.738,0.703s-1.121,0.211-2.074,0.211
			c-0.484,0-0.879-0.016-1.184-0.047s-0.551-0.082-0.738-0.152s-0.309-0.164-0.363-0.281s-0.066-0.262-0.035-0.434l0.656-3.352
			c-0.234,0.5-0.609,1.027-1.125,1.582s-1.125,1.059-1.828,1.512s-1.48,0.828-2.332,1.125s-1.73,0.445-2.637,0.445
			c-1.25,0-2.289-0.219-3.117-0.656s-1.492-1.027-1.992-1.77s-0.855-1.59-1.066-2.543s-0.316-1.953-0.316-3
			c0-0.984,0.094-2.059,0.281-3.223s0.477-2.324,0.867-3.48s0.891-2.27,1.5-3.34s1.34-2.02,2.191-2.848s1.828-1.488,2.93-1.98
			s2.348-0.738,3.738-0.738c1.297,0,2.445,0.27,3.445,0.809s1.875,1.324,2.625,2.355l0.375-1.852
			c0.062-0.328,0.309-0.562,0.738-0.703s1.121-0.211,2.074-0.211c0.469,0,0.859,0.02,1.172,0.059s0.559,0.094,0.738,0.164
			s0.301,0.164,0.363,0.281s0.078,0.254,0.047,0.41L106.348,172.236z M103.442,157.564c-0.547-0.859-1.152-1.504-1.816-1.934
			s-1.434-0.645-2.309-0.645c-0.656,0-1.258,0.156-1.805,0.469s-1.031,0.73-1.453,1.254s-0.793,1.129-1.113,1.816
			s-0.586,1.402-0.797,2.145s-0.367,1.492-0.469,2.25s-0.152,1.457-0.152,2.098c0,0.469,0.035,0.914,0.105,1.336
			s0.199,0.797,0.387,1.125s0.438,0.59,0.75,0.785s0.711,0.293,1.195,0.293c0.688,0,1.391-0.207,2.109-0.621
			s1.391-0.977,2.016-1.688s1.176-1.539,1.652-2.484s0.824-1.957,1.043-3.035L103.442,157.564z"/>
		<path fill="#FFFFFF" d="M129.427,151.518c0,0.156-0.016,0.355-0.047,0.598s-0.074,0.504-0.129,0.785s-0.129,0.562-0.223,0.844
			s-0.199,0.535-0.316,0.762s-0.25,0.414-0.398,0.562s-0.309,0.223-0.48,0.223h-4.57l-1.969,9.82
			c-0.047,0.234-0.09,0.512-0.129,0.832s-0.059,0.582-0.059,0.785c0,0.625,0.148,1.082,0.445,1.371s0.766,0.434,1.406,0.434
			c0.375,0,0.695-0.027,0.961-0.082s0.496-0.117,0.691-0.188s0.363-0.133,0.504-0.188s0.273-0.082,0.398-0.082
			s0.23,0.059,0.316,0.176s0.129,0.309,0.129,0.574c0,0.297-0.031,0.633-0.094,1.008s-0.145,0.738-0.246,1.09
			s-0.215,0.672-0.34,0.961s-0.258,0.504-0.398,0.645s-0.352,0.273-0.633,0.398s-0.613,0.234-0.996,0.328s-0.793,0.168-1.23,0.223
			s-0.875,0.082-1.312,0.082c-0.938,0-1.762-0.098-2.473-0.293s-1.309-0.504-1.793-0.926s-0.848-0.961-1.09-1.617
			s-0.363-1.453-0.363-2.391c0-0.172,0.008-0.371,0.023-0.598s0.043-0.465,0.082-0.715s0.078-0.504,0.117-0.762
			s0.082-0.488,0.129-0.691l2.039-10.195h-2.531c-0.203,0-0.352-0.066-0.445-0.199s-0.141-0.387-0.141-0.762
			c0-0.266,0.027-0.613,0.082-1.043s0.145-0.852,0.27-1.266s0.289-0.77,0.492-1.066s0.445-0.445,0.727-0.445h2.508l0.938-4.664
			c0.031-0.156,0.105-0.297,0.223-0.422s0.297-0.23,0.539-0.316s0.555-0.148,0.938-0.188s0.863-0.059,1.441-0.059
			c0.562,0,1.031,0.02,1.406,0.059s0.664,0.102,0.867,0.188s0.34,0.191,0.41,0.316s0.09,0.266,0.059,0.422l-0.938,4.664h4.523
			c0.266,0,0.445,0.086,0.539,0.258S129.427,151.189,129.427,151.518z"/>
		<path fill="#FFFFFF" d="M149.015,152.689c0,0.359-0.043,0.766-0.129,1.219s-0.199,0.883-0.34,1.289s-0.316,0.746-0.527,1.02
			s-0.441,0.41-0.691,0.41c-0.234,0-0.461-0.094-0.68-0.281s-0.488-0.398-0.809-0.633s-0.723-0.449-1.207-0.645
			s-1.109-0.293-1.875-0.293c-0.812,0-1.539,0.18-2.18,0.539s-1.199,0.824-1.676,1.395s-0.871,1.219-1.184,1.945
			s-0.57,1.461-0.773,2.203s-0.348,1.453-0.434,2.133s-0.129,1.27-0.129,1.77c0,1.266,0.277,2.227,0.832,2.883
			s1.426,0.984,2.613,0.984c0.875,0,1.625-0.113,2.25-0.34s1.16-0.477,1.605-0.75s0.828-0.52,1.148-0.738s0.613-0.328,0.879-0.328
			c0.156,0,0.27,0.07,0.34,0.211s0.105,0.344,0.105,0.609s-0.031,0.598-0.094,0.996s-0.145,0.801-0.246,1.207
			s-0.219,0.785-0.352,1.137s-0.305,0.629-0.516,0.832s-0.543,0.434-0.996,0.691s-0.977,0.488-1.57,0.691s-1.238,0.367-1.934,0.492
			s-1.418,0.188-2.168,0.188c-2.672,0-4.672-0.676-6-2.027s-1.992-3.348-1.992-5.988c0-0.953,0.09-2,0.27-3.141
			s0.473-2.285,0.879-3.434s0.934-2.262,1.582-3.34s1.441-2.031,2.379-2.859s2.023-1.492,3.258-1.992s2.656-0.75,4.266-0.75
			c0.625,0,1.234,0.047,1.828,0.141s1.141,0.223,1.641,0.387s0.941,0.355,1.324,0.574s0.668,0.418,0.855,0.598
			s0.309,0.34,0.363,0.48S149.015,152.486,149.015,152.689z"/>
		<path fill="#FFFFFF" d="M169.844,172.213c-0.031,0.156-0.105,0.293-0.223,0.41s-0.297,0.215-0.539,0.293s-0.555,0.137-0.938,0.176
			s-0.871,0.059-1.465,0.059c-0.562,0-1.027-0.02-1.395-0.059s-0.652-0.098-0.855-0.176s-0.34-0.176-0.41-0.293
			s-0.09-0.254-0.059-0.41l2.508-12.539c0.062-0.328,0.117-0.699,0.164-1.113s0.07-0.785,0.07-1.113c0-0.344-0.035-0.66-0.105-0.949
			s-0.184-0.539-0.34-0.75s-0.359-0.375-0.609-0.492s-0.547-0.176-0.891-0.176c-0.641,0-1.309,0.203-2.004,0.609
			s-1.352,0.961-1.969,1.664s-1.168,1.523-1.652,2.461s-0.828,1.93-1.031,2.977l-1.898,9.422c-0.031,0.156-0.105,0.293-0.223,0.41
			s-0.297,0.215-0.539,0.293s-0.559,0.137-0.949,0.176s-0.867,0.059-1.43,0.059c-0.578,0-1.051-0.02-1.418-0.059
			s-0.656-0.098-0.867-0.176s-0.348-0.176-0.41-0.293s-0.078-0.254-0.047-0.41l6.164-30.82c0.031-0.156,0.102-0.297,0.211-0.422
			s0.289-0.23,0.539-0.316s0.566-0.152,0.949-0.199s0.863-0.07,1.441-0.07s1.051,0.023,1.418,0.07s0.652,0.113,0.855,0.199
			s0.336,0.191,0.398,0.316s0.078,0.266,0.047,0.422l-1.664,8.484c-0.078,0.344-0.164,0.711-0.258,1.102s-0.199,0.777-0.316,1.16
			s-0.234,0.754-0.352,1.113s-0.23,0.68-0.34,0.961c0.297-0.5,0.703-1,1.219-1.5s1.105-0.953,1.77-1.359s1.383-0.738,2.156-0.996
			s1.566-0.387,2.379-0.387c1.062,0,1.961,0.148,2.695,0.445s1.336,0.711,1.805,1.242s0.809,1.164,1.02,1.898
			s0.316,1.539,0.316,2.414c0,0.562-0.031,1.121-0.094,1.676s-0.148,1.105-0.258,1.652L169.844,172.213z"/>
		<path fill="#FFFFFF" d="M198.127,155.9c0,1.125-0.254,2.137-0.762,3.035s-1.297,1.672-2.367,2.32s-2.43,1.145-4.078,1.488
			s-3.613,0.516-5.895,0.516h-2.156c-0.062,0.359-0.109,0.715-0.141,1.066s-0.047,0.676-0.047,0.973
			c0,1.266,0.328,2.219,0.984,2.859s1.711,0.961,3.164,0.961c1.031,0,1.957-0.074,2.777-0.223s1.539-0.312,2.156-0.492
			s1.129-0.344,1.535-0.492s0.703-0.223,0.891-0.223s0.32,0.055,0.398,0.164s0.117,0.281,0.117,0.516c0,0.266-0.023,0.57-0.07,0.914
			s-0.113,0.684-0.199,1.02s-0.195,0.652-0.328,0.949s-0.285,0.523-0.457,0.68c-0.188,0.188-0.531,0.375-1.031,0.562
			s-1.102,0.359-1.805,0.516s-1.492,0.285-2.367,0.387s-1.766,0.152-2.672,0.152c-1.5,0-2.809-0.156-3.926-0.469
			s-2.051-0.789-2.801-1.43s-1.312-1.457-1.688-2.449s-0.562-2.168-0.562-3.527c0-1.047,0.098-2.168,0.293-3.363
			s0.512-2.375,0.949-3.539s1-2.277,1.688-3.34s1.52-1.996,2.496-2.801s2.105-1.449,3.387-1.934s2.742-0.727,4.383-0.727
			c1.422,0,2.645,0.168,3.668,0.504s1.863,0.781,2.52,1.336s1.145,1.188,1.465,1.898S198.127,155.15,198.127,155.9z
			 M192.338,156.346c0-0.625-0.246-1.145-0.738-1.559s-1.207-0.621-2.145-0.621c-0.781,0-1.48,0.141-2.098,0.422
			s-1.16,0.66-1.629,1.137s-0.871,1.039-1.207,1.688s-0.605,1.34-0.809,2.074h1.969c1.25,0,2.297-0.082,3.141-0.246
			s1.523-0.387,2.039-0.668s0.891-0.613,1.125-0.996S192.338,156.783,192.338,156.346z"/>
		<path fill="#FFFFFF" d="M217.994,150.979c0,0.109-0.016,0.305-0.047,0.586s-0.078,0.609-0.141,0.984s-0.141,0.762-0.234,1.16
			s-0.199,0.77-0.316,1.113s-0.25,0.625-0.398,0.844s-0.309,0.328-0.48,0.328c-0.141,0-0.281-0.027-0.422-0.082
			s-0.297-0.109-0.469-0.164s-0.359-0.109-0.562-0.164s-0.438-0.082-0.703-0.082c-0.531,0-1.098,0.203-1.699,0.609
			s-1.176,0.941-1.723,1.605s-1.035,1.438-1.465,2.32s-0.738,1.809-0.926,2.777l-1.875,9.398c-0.031,0.156-0.105,0.293-0.223,0.41
			s-0.297,0.215-0.539,0.293s-0.559,0.137-0.949,0.176s-0.867,0.059-1.43,0.059c-0.578,0-1.051-0.02-1.418-0.059
			s-0.656-0.098-0.867-0.176s-0.348-0.176-0.41-0.293s-0.078-0.254-0.047-0.41l4.172-20.93c0.031-0.156,0.102-0.293,0.211-0.41
			s0.27-0.211,0.48-0.281s0.484-0.125,0.82-0.164s0.738-0.059,1.207-0.059c0.484,0,0.879,0.02,1.184,0.059s0.543,0.094,0.715,0.164
			s0.285,0.164,0.34,0.281s0.066,0.254,0.035,0.41l-0.656,3.328c0.375-0.672,0.809-1.289,1.301-1.852s1.016-1.051,1.57-1.465
			s1.129-0.738,1.723-0.973s1.18-0.352,1.758-0.352c0.234,0,0.473,0.016,0.715,0.047s0.469,0.07,0.68,0.117s0.398,0.105,0.562,0.176
			s0.293,0.145,0.387,0.223C217.947,150.627,217.994,150.775,217.994,150.979z"/>
	</g>
	<g>
		<path fill="#FFFFFF" d="M101.666,186.103c-1.587,0-3.283-0.14-5.059-0.48c-1.085-0.208-1.796-1.256-1.588-2.341
			c0.208-1.084,1.261-1.793,2.341-1.587c8.225,1.573,14.56-1.981,14.623-2.018c0.955-0.551,2.178-0.223,2.729,0.732
			c0.551,0.955,0.229,2.174-0.723,2.728C113.738,183.283,108.792,186.103,101.666,186.103L101.666,186.103z"/>
	</g>
</g>
</svg>
